<mxfile host="app.diagrams.net" agent="Mozilla/5.0 (Windows NT 10.0; Win64; x64) AppleWebKit/537.36 (KHTML, like Gecko) Chrome/137.0.0.0 Safari/537.36 Edg/137.0.0.0" version="27.1.4">
  <diagram name="Page-1" id="13e1069c-82ec-6db2-03f1-153e76fe0fe0">
    <mxGraphModel dx="1876" dy="828" grid="1" gridSize="10" guides="1" tooltips="1" connect="1" arrows="1" fold="1" page="1" pageScale="1" pageWidth="1100" pageHeight="850" background="none" math="0" shadow="0">
      <root>
        <mxCell id="0" />
        <mxCell id="1" parent="0" />
        <mxCell id="Vs1f4UlyF3qcgoX3hWhw-1" value="" style="shape=umlLifeline;perimeter=lifelinePerimeter;whiteSpace=wrap;html=1;container=1;dropTarget=0;collapsible=0;recursiveResize=0;outlineConnect=0;portConstraint=eastwest;newEdgeStyle={&quot;curved&quot;:0,&quot;rounded&quot;:0};participant=umlActor;" parent="1" vertex="1">
          <mxGeometry x="150" y="40" width="20" height="390" as="geometry" />
        </mxCell>
        <mxCell id="Vs1f4UlyF3qcgoX3hWhw-12" value="" style="shape=umlLifeline;perimeter=lifelinePerimeter;whiteSpace=wrap;html=1;container=1;dropTarget=0;collapsible=0;recursiveResize=0;outlineConnect=0;portConstraint=eastwest;newEdgeStyle={&quot;curved&quot;:0,&quot;rounded&quot;:0};participant=umlControl;" parent="1" vertex="1">
          <mxGeometry x="380" y="40" width="40" height="390" as="geometry" />
        </mxCell>
        <mxCell id="1bFq91YPx4SMiapTONDA-12" value="" style="html=1;points=[[0,0,0,0,5],[0,1,0,0,-5],[1,0,0,0,5],[1,1,0,0,-5]];perimeter=orthogonalPerimeter;outlineConnect=0;targetShapes=umlLifeline;portConstraint=eastwest;newEdgeStyle={&quot;curved&quot;:0,&quot;rounded&quot;:0};" parent="Vs1f4UlyF3qcgoX3hWhw-12" vertex="1">
          <mxGeometry x="15" y="135" width="10" height="40" as="geometry" />
        </mxCell>
        <mxCell id="1bFq91YPx4SMiapTONDA-9" value="" style="html=1;points=[[0,0,0,0,5],[0,1,0,0,-5],[1,0,0,0,5],[1,1,0,0,-5]];perimeter=orthogonalPerimeter;outlineConnect=0;targetShapes=umlLifeline;portConstraint=eastwest;newEdgeStyle={&quot;curved&quot;:0,&quot;rounded&quot;:0};" parent="Vs1f4UlyF3qcgoX3hWhw-12" vertex="1">
          <mxGeometry x="-225" y="70" width="10" height="40" as="geometry" />
        </mxCell>
        <mxCell id="1bFq91YPx4SMiapTONDA-23" value="" style="html=1;points=[[0,0,0,0,5],[0,1,0,0,-5],[1,0,0,0,5],[1,1,0,0,-5]];perimeter=orthogonalPerimeter;outlineConnect=0;targetShapes=umlLifeline;portConstraint=eastwest;newEdgeStyle={&quot;curved&quot;:0,&quot;rounded&quot;:0};" parent="Vs1f4UlyF3qcgoX3hWhw-12" vertex="1">
          <mxGeometry x="-225" y="300" width="10" height="40" as="geometry" />
        </mxCell>
        <mxCell id="1bFq91YPx4SMiapTONDA-24" value="" style="html=1;points=[[0,0,0,0,5],[0,1,0,0,-5],[1,0,0,0,5],[1,1,0,0,-5]];perimeter=orthogonalPerimeter;outlineConnect=0;targetShapes=umlLifeline;portConstraint=eastwest;newEdgeStyle={&quot;curved&quot;:0,&quot;rounded&quot;:0};" parent="Vs1f4UlyF3qcgoX3hWhw-12" vertex="1">
          <mxGeometry x="15" y="300" width="10" height="40" as="geometry" />
        </mxCell>
        <mxCell id="1bFq91YPx4SMiapTONDA-10" value="" style="html=1;points=[[0,0,0,0,5],[0,1,0,0,-5],[1,0,0,0,5],[1,1,0,0,-5]];perimeter=orthogonalPerimeter;outlineConnect=0;targetShapes=umlLifeline;portConstraint=eastwest;newEdgeStyle={&quot;curved&quot;:0,&quot;rounded&quot;:0};" parent="Vs1f4UlyF3qcgoX3hWhw-12" vertex="1">
          <mxGeometry x="268" y="70" width="10" height="40" as="geometry" />
        </mxCell>
        <mxCell id="Vs1f4UlyF3qcgoX3hWhw-21" value=":База данных" style="shape=umlLifeline;perimeter=lifelinePerimeter;whiteSpace=wrap;html=1;container=1;dropTarget=0;collapsible=0;recursiveResize=0;outlineConnect=0;portConstraint=eastwest;newEdgeStyle={&quot;curved&quot;:0,&quot;rounded&quot;:0};" parent="1" vertex="1">
          <mxGeometry x="770" y="40" width="100" height="400" as="geometry" />
        </mxCell>
        <mxCell id="1bFq91YPx4SMiapTONDA-17" value="" style="html=1;points=[[0,0,0,0,5],[0,1,0,0,-5],[1,0,0,0,5],[1,1,0,0,-5]];perimeter=orthogonalPerimeter;outlineConnect=0;targetShapes=umlLifeline;portConstraint=eastwest;newEdgeStyle={&quot;curved&quot;:0,&quot;rounded&quot;:0};" parent="Vs1f4UlyF3qcgoX3hWhw-21" vertex="1">
          <mxGeometry x="-375" y="195" width="10" height="40" as="geometry" />
        </mxCell>
        <mxCell id="1bFq91YPx4SMiapTONDA-18" value="" style="html=1;points=[[0,0,0,0,5],[0,1,0,0,-5],[1,0,0,0,5],[1,1,0,0,-5]];perimeter=orthogonalPerimeter;outlineConnect=0;targetShapes=umlLifeline;portConstraint=eastwest;newEdgeStyle={&quot;curved&quot;:0,&quot;rounded&quot;:0};" parent="Vs1f4UlyF3qcgoX3hWhw-21" vertex="1">
          <mxGeometry x="-375" y="245" width="10" height="40" as="geometry" />
        </mxCell>
        <mxCell id="1bFq91YPx4SMiapTONDA-25" value="Вывод данных" style="html=1;verticalAlign=bottom;endArrow=open;dashed=1;endSize=8;curved=0;rounded=0;fontSize=12;exitX=0;exitY=0;exitDx=0;exitDy=5;exitPerimeter=0;entryX=1;entryY=0;entryDx=0;entryDy=5;entryPerimeter=0;" parent="Vs1f4UlyF3qcgoX3hWhw-21" edge="1">
          <mxGeometry y="-5" relative="1" as="geometry">
            <mxPoint x="-375" y="310" as="sourcePoint" />
            <mxPoint x="-605" y="310" as="targetPoint" />
            <mxPoint as="offset" />
          </mxGeometry>
        </mxCell>
        <mxCell id="1bFq91YPx4SMiapTONDA-19" value="" style="html=1;points=[[0,0,0,0,5],[0,1,0,0,-5],[1,0,0,0,5],[1,1,0,0,-5]];perimeter=orthogonalPerimeter;outlineConnect=0;targetShapes=umlLifeline;portConstraint=eastwest;newEdgeStyle={&quot;curved&quot;:0,&quot;rounded&quot;:0};" parent="Vs1f4UlyF3qcgoX3hWhw-21" vertex="1">
          <mxGeometry x="45" y="195" width="10" height="40" as="geometry" />
        </mxCell>
        <mxCell id="1bFq91YPx4SMiapTONDA-20" value="" style="html=1;points=[[0,0,0,0,5],[0,1,0,0,-5],[1,0,0,0,5],[1,1,0,0,-5]];perimeter=orthogonalPerimeter;outlineConnect=0;targetShapes=umlLifeline;portConstraint=eastwest;newEdgeStyle={&quot;curved&quot;:0,&quot;rounded&quot;:0};" parent="Vs1f4UlyF3qcgoX3hWhw-21" vertex="1">
          <mxGeometry x="45" y="245" width="10" height="40" as="geometry" />
        </mxCell>
        <mxCell id="1bFq91YPx4SMiapTONDA-21" value="Поиск данных" style="html=1;verticalAlign=bottom;endArrow=block;curved=0;rounded=0;entryX=0;entryY=0;entryDx=0;entryDy=5;fontSize=12;startSize=8;endSize=8;" parent="Vs1f4UlyF3qcgoX3hWhw-21" source="1bFq91YPx4SMiapTONDA-17" target="1bFq91YPx4SMiapTONDA-19" edge="1">
          <mxGeometry x="-0.1951" y="15" relative="1" as="geometry">
            <mxPoint x="-40" y="190" as="sourcePoint" />
            <mxPoint as="offset" />
          </mxGeometry>
        </mxCell>
        <mxCell id="1bFq91YPx4SMiapTONDA-22" value="Результат поиска" style="html=1;verticalAlign=bottom;endArrow=open;dashed=1;endSize=8;curved=0;rounded=0;exitX=0;exitY=0;exitDx=0;exitDy=5;fontSize=12;entryX=1;entryY=0;entryDx=0;entryDy=5;entryPerimeter=0;exitPerimeter=0;" parent="Vs1f4UlyF3qcgoX3hWhw-21" source="1bFq91YPx4SMiapTONDA-20" target="1bFq91YPx4SMiapTONDA-18" edge="1">
          <mxGeometry x="0.1951" y="-15" relative="1" as="geometry">
            <mxPoint x="-40" y="300" as="targetPoint" />
            <mxPoint as="offset" />
          </mxGeometry>
        </mxCell>
        <mxCell id="Vs1f4UlyF3qcgoX3hWhw-35" value="&lt;span style=&quot;font-weight: normal;&quot;&gt;Пользователь (стажер&lt;/span&gt;&lt;span style=&quot;background-color: transparent; color: light-dark(rgb(0, 0, 0), rgb(255, 255, 255)); font-weight: normal;&quot;&gt;)&lt;/span&gt;" style="text;align=center;fontStyle=1;verticalAlign=middle;spacingLeft=3;spacingRight=3;strokeColor=none;rotatable=0;points=[[0,0.5],[1,0.5]];portConstraint=eastwest;html=1;" parent="1" vertex="1">
          <mxGeometry x="110" y="4" width="100" height="36" as="geometry" />
        </mxCell>
        <mxCell id="Vs1f4UlyF3qcgoX3hWhw-37" value="&lt;span style=&quot;font-weight: 400;&quot;&gt;Обработчик&lt;/span&gt;" style="text;align=center;fontStyle=1;verticalAlign=middle;spacingLeft=3;spacingRight=3;strokeColor=none;rotatable=0;points=[[0,0.5],[1,0.5]];portConstraint=eastwest;html=1;" parent="1" vertex="1">
          <mxGeometry x="350" y="10" width="100" height="36" as="geometry" />
        </mxCell>
        <mxCell id="1bFq91YPx4SMiapTONDA-1" value="" style="shape=umlLifeline;perimeter=lifelinePerimeter;whiteSpace=wrap;html=1;container=1;dropTarget=0;collapsible=0;recursiveResize=0;outlineConnect=0;portConstraint=eastwest;newEdgeStyle={&quot;curved&quot;:0,&quot;rounded&quot;:0};participant=umlBoundary;" parent="1" vertex="1">
          <mxGeometry x="630" y="40" width="46.67" height="400" as="geometry" />
        </mxCell>
        <mxCell id="1bFq91YPx4SMiapTONDA-5" value="&lt;span style=&quot;font-weight: 400;&quot;&gt;Строка поиска&lt;/span&gt;" style="text;align=center;fontStyle=1;verticalAlign=middle;spacingLeft=3;spacingRight=3;strokeColor=none;rotatable=0;points=[[0,0.5],[1,0.5]];portConstraint=eastwest;html=1;" parent="1" vertex="1">
          <mxGeometry x="610" width="100" height="36" as="geometry" />
        </mxCell>
        <mxCell id="1bFq91YPx4SMiapTONDA-11" value="Ввод фильтра поиска" style="html=1;verticalAlign=bottom;startArrow=none;endArrow=block;startSize=8;curved=0;rounded=0;entryX=0;entryY=0;entryDx=0;entryDy=5;fontSize=12;startFill=0;" parent="1" edge="1">
          <mxGeometry relative="1" as="geometry">
            <mxPoint x="165" y="120" as="sourcePoint" />
            <mxPoint x="648" y="120" as="targetPoint" />
          </mxGeometry>
        </mxCell>
        <mxCell id="1bFq91YPx4SMiapTONDA-13" value="" style="html=1;points=[[0,0,0,0,5],[0,1,0,0,-5],[1,0,0,0,5],[1,1,0,0,-5]];perimeter=orthogonalPerimeter;outlineConnect=0;targetShapes=umlLifeline;portConstraint=eastwest;newEdgeStyle={&quot;curved&quot;:0,&quot;rounded&quot;:0};" parent="1" vertex="1">
          <mxGeometry x="648" y="175" width="10" height="40" as="geometry" />
        </mxCell>
        <mxCell id="1bFq91YPx4SMiapTONDA-14" value="Передача данных" style="html=1;verticalAlign=bottom;endArrow=none;curved=0;rounded=0;entryX=0;entryY=0;entryDx=0;entryDy=5;fontSize=12;startSize=8;endSize=8;startArrow=classic;startFill=1;endFill=0;" parent="1" source="1bFq91YPx4SMiapTONDA-12" target="1bFq91YPx4SMiapTONDA-13" edge="1">
          <mxGeometry x="-0.028" y="5" relative="1" as="geometry">
            <mxPoint x="578" y="170" as="sourcePoint" />
            <mxPoint as="offset" />
          </mxGeometry>
        </mxCell>
      </root>
    </mxGraphModel>
  </diagram>
</mxfile>
